# xmcd
#
# Track frame offsets: 
#        150
#        22025
#        39439
#        59675
#        84950
#        101485
#        120032
#        140587
#        157487
#        172459
#        189034
#        206027
#        226357
#        250350
#        270832
#        290060
#
# Disc length: 4054 seconds
#
# Revision: 0
# Processed by: cddbd v1.5.2PL0 Copyright (c) Steve Scherf et al.
# Submitted via: ExactAudioCopy v0.99pb4
#
DISCID=e60fd410
DTITLE=G.C. Cameron - The Very Best Of The Motorcity Recordings
DYEAR=1996
DGENRE=Soul
TTITLE0=Right Of Way
TTITLE1=It's A Shame
TTITLE2=Straight In The Eye
TTITLE3=Come Back To Me
TTITLE4=Good Times Up Ahead
TTITLE5=I'll Be Around
TTITLE6=No Need To Explain
TTITLE7=You're What's Missing In My Life
TTITLE8=Too Busy Thinking About My Baby
TTITLE9=Out Of My Mind
TTITLE10=Just My Imagination
TTITLE11=Right Or Wrong
TTITLE12=Heartache Heartbreak
TTITLE13=Runaway Child, Running Wild
TTITLE14=London Bridge Is Burning Down
TTITLE15=You're All I Need To Get By
EXTD=
EXTT0=
EXTT1=
EXTT2=
EXTT3=
EXTT4=
EXTT5=
EXTT6=
EXTT7=
EXTT8=
EXTT9=
EXTT10=
EXTT11=
EXTT12=
EXTT13=
EXTT14=
EXTT15=
PLAYORDER=
